<svg width="18" height="16" viewBox="0 0 18 16" fill="none" xmlns="http://www.w3.org/2000/svg">
<path d="M8.6705 0.334735C9.10983 0.781049 9.10983 1.50467 8.6705 1.95098L3.84099 6.85714H16.875C17.4963 6.85714 18 7.36882 18 8C18 8.63118 17.4963 9.14286 16.875 9.14286H3.84099L8.6705 14.049C9.10983 14.4953 9.10983 15.219 8.6705 15.6653C8.23116 16.1116 7.51884 16.1116 7.0795 15.6653L0.329505 8.80812C0.118526 8.59379 0 8.3031 0 8C0 7.6969 0.118526 7.40621 0.329505 7.19188L7.0795 0.334735C7.51884 -0.111578 8.23116 -0.111578 8.6705 0.334735Z" fill="#FAEB0C"/>
</svg>
