<svg width="53" height="53" viewBox="0 0 53 53" fill="none" xmlns="http://www.w3.org/2000/svg">
<path d="M9.76316 29.2895C8.22895 29.2895 6.97368 30.5447 6.97368 32.0789C6.97368 33.6132 8.22895 34.8684 9.76316 34.8684C11.2974 34.8684 12.5526 33.6132 12.5526 32.0789C12.5526 30.5447 11.2974 29.2895 9.76316 29.2895ZM9.76316 40.4474C8.22895 40.4474 6.97368 41.7026 6.97368 43.2368C6.97368 44.7711 8.22895 46.0263 9.76316 46.0263C11.2974 46.0263 12.5526 44.7711 12.5526 43.2368C12.5526 41.7026 11.2974 40.4474 9.76316 40.4474ZM9.76316 18.1316C8.22895 18.1316 6.97368 19.3868 6.97368 20.9211C6.97368 22.4553 8.22895 23.7105 9.76316 23.7105C11.2974 23.7105 12.5526 22.4553 12.5526 20.9211C12.5526 19.3868 11.2974 18.1316 9.76316 18.1316ZM1.39474 19.5263C0.613684 19.5263 0 20.14 0 20.9211C0 21.7021 0.613684 22.3158 1.39474 22.3158C2.17579 22.3158 2.78947 21.7021 2.78947 20.9211C2.78947 20.14 2.17579 19.5263 1.39474 19.5263ZM9.76316 6.97368C8.22895 6.97368 6.97368 8.22895 6.97368 9.76316C6.97368 11.2974 8.22895 12.5526 9.76316 12.5526C11.2974 12.5526 12.5526 11.2974 12.5526 9.76316C12.5526 8.22895 11.2974 6.97368 9.76316 6.97368ZM51.6053 22.3158C52.3863 22.3158 53 21.7021 53 20.9211C53 20.14 52.3863 19.5263 51.6053 19.5263C50.8242 19.5263 50.2105 20.14 50.2105 20.9211C50.2105 21.7021 50.8242 22.3158 51.6053 22.3158ZM32.0789 12.5526C33.6132 12.5526 34.8684 11.2974 34.8684 9.76316C34.8684 8.22895 33.6132 6.97368 32.0789 6.97368C30.5447 6.97368 29.2895 8.22895 29.2895 9.76316C29.2895 11.2974 30.5447 12.5526 32.0789 12.5526ZM32.0789 2.78947C32.86 2.78947 33.4737 2.17579 33.4737 1.39474C33.4737 0.613684 32.86 0 32.0789 0C31.2979 0 30.6842 0.613684 30.6842 1.39474C30.6842 2.17579 31.2979 2.78947 32.0789 2.78947ZM1.39474 30.6842C0.613684 30.6842 0 31.2979 0 32.0789C0 32.86 0.613684 33.4737 1.39474 33.4737C2.17579 33.4737 2.78947 32.86 2.78947 32.0789C2.78947 31.2979 2.17579 30.6842 1.39474 30.6842ZM20.9211 50.2105C20.14 50.2105 19.5263 50.8242 19.5263 51.6053C19.5263 52.3863 20.14 53 20.9211 53C21.7021 53 22.3158 52.3863 22.3158 51.6053C22.3158 50.8242 21.7021 50.2105 20.9211 50.2105ZM20.9211 2.78947C21.7021 2.78947 22.3158 2.17579 22.3158 1.39474C22.3158 0.613684 21.7021 0 20.9211 0C20.14 0 19.5263 0.613684 19.5263 1.39474C19.5263 2.17579 20.14 2.78947 20.9211 2.78947ZM20.9211 12.5526C22.4553 12.5526 23.7105 11.2974 23.7105 9.76316C23.7105 8.22895 22.4553 6.97368 20.9211 6.97368C19.3868 6.97368 18.1316 8.22895 18.1316 9.76316C18.1316 11.2974 19.3868 12.5526 20.9211 12.5526ZM20.9211 27.8947C18.6058 27.8947 16.7368 29.7637 16.7368 32.0789C16.7368 34.3942 18.6058 36.2632 20.9211 36.2632C23.2363 36.2632 25.1053 34.3942 25.1053 32.0789C25.1053 29.7637 23.2363 27.8947 20.9211 27.8947ZM43.2368 29.2895C41.7026 29.2895 40.4474 30.5447 40.4474 32.0789C40.4474 33.6132 41.7026 34.8684 43.2368 34.8684C44.7711 34.8684 46.0263 33.6132 46.0263 32.0789C46.0263 30.5447 44.7711 29.2895 43.2368 29.2895ZM43.2368 40.4474C41.7026 40.4474 40.4474 41.7026 40.4474 43.2368C40.4474 44.7711 41.7026 46.0263 43.2368 46.0263C44.7711 46.0263 46.0263 44.7711 46.0263 43.2368C46.0263 41.7026 44.7711 40.4474 43.2368 40.4474ZM43.2368 18.1316C41.7026 18.1316 40.4474 19.3868 40.4474 20.9211C40.4474 22.4553 41.7026 23.7105 43.2368 23.7105C44.7711 23.7105 46.0263 22.4553 46.0263 20.9211C46.0263 19.3868 44.7711 18.1316 43.2368 18.1316ZM43.2368 6.97368C41.7026 6.97368 40.4474 8.22895 40.4474 9.76316C40.4474 11.2974 41.7026 12.5526 43.2368 12.5526C44.7711 12.5526 46.0263 11.2974 46.0263 9.76316C46.0263 8.22895 44.7711 6.97368 43.2368 6.97368ZM51.6053 30.6842C50.8242 30.6842 50.2105 31.2979 50.2105 32.0789C50.2105 32.86 50.8242 33.4737 51.6053 33.4737C52.3863 33.4737 53 32.86 53 32.0789C53 31.2979 52.3863 30.6842 51.6053 30.6842ZM32.0789 40.4474C30.5447 40.4474 29.2895 41.7026 29.2895 43.2368C29.2895 44.7711 30.5447 46.0263 32.0789 46.0263C33.6132 46.0263 34.8684 44.7711 34.8684 43.2368C34.8684 41.7026 33.6132 40.4474 32.0789 40.4474ZM32.0789 50.2105C31.2979 50.2105 30.6842 50.8242 30.6842 51.6053C30.6842 52.3863 31.2979 53 32.0789 53C32.86 53 33.4737 52.3863 33.4737 51.6053C33.4737 50.8242 32.86 50.2105 32.0789 50.2105ZM20.9211 16.7368C18.6058 16.7368 16.7368 18.6058 16.7368 20.9211C16.7368 23.2363 18.6058 25.1053 20.9211 25.1053C23.2363 25.1053 25.1053 23.2363 25.1053 20.9211C25.1053 18.6058 23.2363 16.7368 20.9211 16.7368ZM20.9211 40.4474C19.3868 40.4474 18.1316 41.7026 18.1316 43.2368C18.1316 44.7711 19.3868 46.0263 20.9211 46.0263C22.4553 46.0263 23.7105 44.7711 23.7105 43.2368C23.7105 41.7026 22.4553 40.4474 20.9211 40.4474ZM32.0789 27.8947C29.7637 27.8947 27.8947 29.7637 27.8947 32.0789C27.8947 34.3942 29.7637 36.2632 32.0789 36.2632C34.3942 36.2632 36.2632 34.3942 36.2632 32.0789C36.2632 29.7637 34.3942 27.8947 32.0789 27.8947ZM32.0789 16.7368C29.7637 16.7368 27.8947 18.6058 27.8947 20.9211C27.8947 23.2363 29.7637 25.1053 32.0789 25.1053C34.3942 25.1053 36.2632 23.2363 36.2632 20.9211C36.2632 18.6058 34.3942 16.7368 32.0789 16.7368Z" fill="#194AFA"/>
</svg>
