<svg width="132" height="57" viewBox="0 0 132 57" fill="none" xmlns="http://www.w3.org/2000/svg">
<path fill-rule="evenodd" clip-rule="evenodd" d="M83.2141 34.681V20.1909C83.4174 19.4458 83.6207 19.4972 84.0444 19.4844H94.7791C95.3637 19.5486 95.3383 20.6234 95.0079 21.0644H85.8151C85.4 21.0901 84.9933 21.3984 84.9509 22.0621V32.827C85.095 33.3194 85.1966 33.5249 85.5609 33.5592H94.6774C95.6687 33.8289 95.1604 35.1135 95.0079 35.1392H83.7266C83.5191 35.1649 83.2649 35.2677 83.2141 34.6768V34.681Z" fill="white"/>
<path fill-rule="evenodd" clip-rule="evenodd" d="M94.8438 26.7204C95.2353 26.9459 95.5749 27.3381 94.8438 27.9264H87.3483C86.1784 27.4165 87.3624 26.7204 87.3624 26.7204H94.8438Z" fill="white"/>
<path fill-rule="evenodd" clip-rule="evenodd" d="M65.5904 21.1711L70.6045 21.1483C71.0757 21.1985 71.3424 21.3079 71.2757 21.8139V35.764C72.2492 36.9538 73.1027 36.0785 73.0938 35.7366V21.7456C73.316 21.3125 73.4227 21.2031 73.805 21.1757H79.0547C79.1836 21.2031 80.2504 20.5466 78.9791 19.4844H65.6437C65.5282 19.5619 64.568 20.5466 65.5904 21.1757V21.1711Z" fill="white"/>
<path fill-rule="evenodd" clip-rule="evenodd" d="M50.0889 34.686V21.6234C50.2869 21.1871 50.5838 21.0558 50.8852 21.0558H58.3169C58.7037 21.0558 59.0501 21.149 59.356 21.3396C59.6619 21.5302 59.9229 21.7716 60.1343 22.0596C60.3457 22.3477 60.5077 22.6738 60.6201 23.0296C60.7326 23.3854 60.7911 23.7285 60.7911 24.0588C60.7911 24.3553 60.7461 24.673 60.6606 25.0034C60.5752 25.3338 60.4267 25.6387 60.2243 25.9225C60.0218 26.2021 59.7699 26.435 59.473 26.6172C59.1761 26.7993 58.8162 26.8882 58.3933 26.8882H56.4724C56.333 26.9772 55.1993 27.7396 56.378 28.4512H58.7082C59.2526 28.4512 59.7654 28.3326 60.2513 28.0912C60.7326 27.8497 61.16 27.5278 61.5289 27.1212C61.8977 26.7146 62.1902 26.2529 62.3971 25.7319C62.6085 25.2109 62.712 24.6603 62.712 24.08C62.712 23.4362 62.604 22.8305 62.3836 22.2672C62.1632 21.7038 61.8708 21.221 61.5019 20.8144C61.133 20.4077 60.7011 20.0858 60.2108 19.8444C59.7204 19.603 59.1986 19.4844 58.6543 19.4844H48.8293C48.4469 19.6496 48.4244 19.5521 48.24 19.9376V34.7157C48.8788 35.5628 49.8505 35.0037 50.0844 34.6775L50.0889 34.686Z" fill="white"/>
<path fill-rule="evenodd" clip-rule="evenodd" d="M45.3999 35.1624H44.1988C42.1418 31.2679 40.0848 27.3691 38.0278 23.4747C37.0569 23.1324 37.2087 23.3534 36.7716 23.5136L31.8799 32.9314C31.8661 33.2693 31.9213 33.4772 32.2066 33.5639H39.4774C40.3609 34.6295 39.7075 34.9804 39.3716 35.1624H29.3075C28.9394 35.0844 28.9716 34.7595 28.944 34.4779L36.7163 19.7751C36.7163 19.7751 37.2501 19.1123 38.0969 19.7881L45.791 34.2093C45.7772 34.7725 46.0257 34.8851 45.3953 35.1624H45.3999Z" fill="white"/>
<path fill-rule="evenodd" clip-rule="evenodd" d="M33.3627 10.83L39.3744 16.9815L45.1065 11.1096C38.8152 4.67844 31.685 -4.54886 20.0809 2.58132L3.58364 18.9388C2.60499 20.3369 -3.96597 27.0476 3.58364 37.673L4.28268 38.3662L17.3139 51.2693L18.1236 52.0732C24.8344 58.0849 31.2655 56.9665 36.5782 53.4713L45.1065 45.0828L39.3744 39.4905C31.6966 48.1936 28.2539 51.8518 20.1683 43.009C17.1275 39.6828 14.4595 36.8924 10.9585 33.339C6.45552 28.7719 7.36427 24.9564 14.4945 19.2243L23.1625 10.5562C27.4966 5.24349 32.6694 9.43772 33.3685 10.8358L33.3627 10.83Z" fill="#194AFA"/>
<path fill-rule="evenodd" clip-rule="evenodd" d="M104.922 22.5738H113.73V13.7659H122.398V22.5738H131.206V31.3817H122.398V40.1896H113.73V31.3817H104.922V22.5738Z" fill="#194AFA"/>
</svg>
